<svg width="100" height="76" viewBox="0 0 100 76" fill="none" xmlns="http://www.w3.org/2000/svg">
<path d="M25.532 74.4663C28.7452 74.4663 31.9269 73.8334 34.8955 72.6038C37.8641 71.3742 40.5614 69.5719 42.8335 67.2999C45.1056 65.0279 46.9079 62.3306 48.1376 59.3621C49.3672 56.3935 50.0001 53.2119 50.0001 49.9988H25.532V74.4663Z" fill="#252572"/>
<path d="M74.468 74.4663C77.6813 74.4663 80.8629 73.8334 83.8316 72.6038C86.8001 71.3742 89.4975 69.5719 91.7692 67.2999C94.0416 65.0279 95.8442 62.3306 97.0739 59.3621C98.3035 56.3935 98.9361 53.2119 98.9361 49.9988H74.468V74.4663Z" fill="url(#paint0_linear_106_1330)"/>
<path d="M50.0001 25.5314C46.7868 25.5314 43.6052 26.1642 40.6365 27.3938C37.668 28.6234 34.9706 30.4258 32.6986 32.6978C30.4265 34.9698 28.6241 37.6671 27.3945 40.6356C26.1649 43.6042 25.532 46.7857 25.532 49.9989H50.0001V25.5314Z" fill="url(#paint1_linear_106_1330)"/>
<path d="M25.5319 49.9989C25.5319 46.7857 24.899 43.6042 23.6694 40.6356C22.4398 37.6671 20.6374 34.9698 18.3654 32.6978C16.0933 30.4258 13.3959 28.6234 10.4274 27.3938C7.45877 26.1642 4.27704 25.5314 1.06384 25.5314L1.06384 49.9989H25.5319Z" fill="#DD3F52"/>
<path d="M98.9361 49.9989C98.9361 46.7857 98.3035 43.6042 97.0739 40.6356C95.8442 37.6671 94.0416 34.9698 91.7692 32.6978C89.4975 30.4258 86.8001 28.6234 83.8316 27.3938C80.8629 26.1642 77.6813 25.5314 74.468 25.5314V49.9989H98.9361Z" fill="#DD3F52"/>
<path d="M25.5319 1.06384C22.3187 1.06384 19.137 1.69671 16.1684 2.92632C13.1998 4.15593 10.5025 5.95819 8.23037 8.23021C5.9583 10.5023 4.156 13.1996 2.92636 16.168C1.69673 19.1366 1.06384 22.3182 1.06384 25.5314H25.5319V1.06384Z" fill="url(#paint2_linear_106_1330)"/>
<path d="M74.4681 1.06384C71.2548 1.06384 68.0732 1.69671 65.1045 2.92632C62.136 4.15593 59.4386 5.95819 57.1666 8.23021C54.8945 10.5023 53.0921 13.1996 51.8625 16.168C50.6329 19.1366 50 22.3182 50 25.5314H74.4681V1.06384Z" fill="url(#paint3_linear_106_1330)"/>
<path d="M25.532 25.5314C28.7452 25.5314 31.9269 24.8985 34.8956 23.6689C37.8641 22.4393 40.5615 20.637 42.8336 18.365C45.1056 16.093 46.9079 13.3957 48.1375 10.4272C49.3672 7.45862 50.0001 4.27696 50.0001 1.06384L25.532 1.06384V25.5314Z" fill="#262572"/>
<path d="M74.468 25.5314C77.6813 25.5314 80.8629 24.8985 83.8316 23.6689C86.8001 22.4393 89.4975 20.637 91.7692 18.365C94.0416 16.093 95.8442 13.3957 97.0739 10.4272C98.3035 7.45862 98.9361 4.27696 98.9361 1.06384L74.468 1.06384V25.5314Z" fill="url(#paint4_linear_106_1330)"/>
<path d="M1.06384 49.9988C1.06384 53.2119 1.69673 56.3935 2.92636 59.3621C4.156 62.3306 5.9583 65.0279 8.23037 67.2999C10.5025 69.5719 13.1998 71.3742 16.1684 72.6038C19.137 73.8334 22.3187 74.4663 25.5319 74.4663V49.9988H1.06384Z" fill="url(#paint5_linear_106_1330)"/>
<path d="M74.4681 49.9988C71.2548 49.9988 68.0732 50.6316 65.1045 51.8612C62.136 53.0909 59.4386 54.8932 57.1666 57.1652C54.8945 59.4372 53.0921 62.1345 51.8625 65.103C50.6329 68.0716 50 71.2531 50 74.4663H74.4681V49.9988Z" fill="url(#paint6_linear_106_1330)"/>
<path d="M50 25.5314C50 28.7445 50.6329 31.9261 51.8625 34.8947C53.0921 37.8632 54.8945 40.5605 57.1666 42.8325C59.4386 45.1045 62.136 46.9068 65.1045 48.1364C68.0732 49.366 71.2548 49.9989 74.4681 49.9989V25.5314H50Z" fill="#252572"/>
<defs>
<linearGradient id="paint0_linear_106_1330" x1="95.3202" y1="65.4623" x2="50.0064" y2="25.5302" gradientUnits="userSpaceOnUse">
<stop stop-color="#FC7300"/>
<stop offset="1" stop-color="#F8007A"/>
</linearGradient>
<linearGradient id="paint1_linear_106_1330" x1="25.532" y1="49.9989" x2="46.7898" y2="23.0034" gradientUnits="userSpaceOnUse">
<stop stop-color="#08ADF8"/>
<stop offset="1" stop-color="#4700FC"/>
</linearGradient>
<linearGradient id="paint2_linear_106_1330" x1="7.18364" y1="10.0679" x2="50.0977" y2="25.532" gradientUnits="userSpaceOnUse">
<stop stop-color="#FC7300"/>
<stop offset="1" stop-color="#F8007A"/>
</linearGradient>
<linearGradient id="paint3_linear_106_1330" x1="74.4737" y1="1.06384" x2="53.2158" y2="28.0593" gradientUnits="userSpaceOnUse">
<stop stop-color="#08ADF8"/>
<stop offset="1" stop-color="#4700FC"/>
</linearGradient>
<linearGradient id="paint4_linear_106_1330" x1="98.9361" y1="1.06384" x2="47.5504" y2="18.1755" gradientUnits="userSpaceOnUse">
<stop stop-color="#C33764"/>
<stop offset="1" stop-color="#1D2671"/>
</linearGradient>
<linearGradient id="paint5_linear_106_1330" x1="7.03406" y1="66.8786" x2="54.9306" y2="32.4334" gradientUnits="userSpaceOnUse">
<stop stop-color="#C33764"/>
<stop offset="1" stop-color="#1D2671"/>
</linearGradient>
<linearGradient id="paint6_linear_106_1330" x1="74.4681" y1="74.4663" x2="44.6507" y2="29.4673" gradientUnits="userSpaceOnUse">
<stop stop-color="#08ADF8"/>
<stop offset="1" stop-color="#4700FC"/>
</linearGradient>
</defs>
</svg>
